<svg width="162" height="80" viewBox="0 0 162 80" fill="none" xmlns="http://www.w3.org/2000/svg">
<path d="M24.3653 20.3749C25.671 25.6119 25.686 30.5418 24.7479 34.2444C23.7866 38.0384 21.9961 40.032 20.1082 40.5027C18.2203 40.9734 15.7035 40.0538 13.0735 37.1551C10.507 34.3263 8.2057 29.9664 6.89999 24.7295C5.59428 19.4926 5.57934 14.5626 6.51744 10.86C7.47869 7.06602 9.26924 5.07244 11.1571 4.60175C13.045 4.13105 15.5618 5.05067 18.1918 7.94929C20.7583 10.7781 23.0596 15.138 24.3653 20.3749Z" fill="black" stroke="#23FF81" stroke-width="4"/>
<path d="M154.365 58.7295C153.06 63.9664 150.758 68.3263 148.192 71.1551C145.562 74.0538 143.045 74.9734 141.157 74.5027C139.269 74.032 137.479 72.0384 136.517 68.2444C135.579 64.5418 135.594 59.6118 136.9 54.3749C138.206 49.138 140.507 44.7781 143.074 41.9493C145.703 39.0507 148.22 38.131 150.108 38.6017C151.996 39.0724 153.787 41.066 154.748 44.86C155.686 48.5626 155.671 53.4926 154.365 58.7295Z" fill="black" stroke="#2374FF" stroke-width="4"/>
<path d="M11.86 68V47H32.17V68H25.21V50.99L26.74 52.49H17.29L18.82 50.99V68H11.86ZM44.0734 68.3C42.2134 68.3 40.5634 67.94 39.1234 67.22C37.7034 66.48 36.5834 65.47 35.7634 64.19C34.9434 62.91 34.5334 61.44 34.5334 59.78C34.5334 58.12 34.9434 56.65 35.7634 55.37C36.5834 54.09 37.7034 53.09 39.1234 52.37C40.5634 51.65 42.2134 51.29 44.0734 51.29C45.9334 51.29 47.5834 51.65 49.0234 52.37C50.4634 53.09 51.5834 54.09 52.3834 55.37C53.2034 56.65 53.6134 58.12 53.6134 59.78C53.6134 61.44 53.2034 62.91 52.3834 64.19C51.5834 65.47 50.4634 66.48 49.0234 67.22C47.5834 67.94 45.9334 68.3 44.0734 68.3ZM44.0734 63.02C44.5734 63.02 45.0234 62.9 45.4234 62.66C45.8234 62.42 46.1434 62.06 46.3834 61.58C46.6234 61.08 46.7434 60.48 46.7434 59.78C46.7434 59.06 46.6234 58.47 46.3834 58.01C46.1434 57.53 45.8234 57.17 45.4234 56.93C45.0234 56.69 44.5734 56.57 44.0734 56.57C43.5734 56.57 43.1234 56.69 42.7234 56.93C42.3234 57.17 42.0034 57.53 41.7634 58.01C41.5234 58.47 41.4034 59.06 41.4034 59.78C41.4034 60.48 41.5234 61.08 41.7634 61.58C42.0034 62.06 42.3234 62.42 42.7234 62.66C43.1234 62.9 43.5734 63.02 44.0734 63.02ZM66.6611 68.3C65.2411 68.3 64.0611 68 63.1211 67.4C62.2011 66.78 61.5211 65.85 61.0811 64.61C60.6411 63.35 60.4211 61.75 60.4211 59.81C60.4211 57.83 60.6211 56.22 61.0211 54.98C61.4411 53.72 62.1111 52.79 63.0311 52.19C63.9511 51.59 65.1611 51.29 66.6611 51.29C68.1011 51.29 69.4211 51.64 70.6211 52.34C71.8211 53.02 72.7811 54 73.5011 55.28C74.2211 56.54 74.5811 58.05 74.5811 59.81C74.5811 61.57 74.2211 63.09 73.5011 64.37C72.7811 65.63 71.8211 66.6 70.6211 67.28C69.4211 67.96 68.1011 68.3 66.6611 68.3ZM55.7111 73.82V51.59H62.1611V53.81L62.1911 59.81L62.4911 65.81V73.82H55.7111ZM65.0411 63.02C65.5411 63.02 65.9911 62.9 66.3911 62.66C66.7911 62.42 67.1111 62.06 67.3511 61.58C67.5911 61.1 67.7111 60.51 67.7111 59.81C67.7111 59.09 67.5911 58.49 67.3511 58.01C67.1111 57.53 66.7911 57.17 66.3911 56.93C65.9911 56.69 65.5411 56.57 65.0411 56.57C64.5411 56.57 64.0911 56.69 63.6911 56.93C63.2911 57.17 62.9711 57.53 62.7311 58.01C62.4911 58.49 62.3711 59.09 62.3711 59.81C62.3711 60.51 62.4911 61.1 62.7311 61.58C62.9711 62.06 63.2911 62.42 63.6911 62.66C64.0911 62.9 64.5411 63.02 65.0411 63.02ZM79.9696 68V55.43L81.4396 56.87H74.9596V51.59H91.7296V56.87H85.2496L86.7196 55.43V68H79.9696ZM103.25 68V65.09L102.77 64.31V58.79C102.77 57.99 102.52 57.38 102.02 56.96C101.54 56.54 100.75 56.33 99.6498 56.33C98.9098 56.33 98.1598 56.45 97.3998 56.69C96.6398 56.91 95.9898 57.22 95.4498 57.62L93.2898 53.15C94.2498 52.55 95.3998 52.09 96.7398 51.77C98.0798 51.45 99.3898 51.29 100.67 51.29C103.49 51.29 105.67 51.92 107.21 53.18C108.77 54.44 109.55 56.44 109.55 59.18V68H103.25ZM98.5998 68.3C97.2598 68.3 96.1398 68.07 95.2398 67.61C94.3398 67.15 93.6598 66.54 93.1998 65.78C92.7398 65 92.5098 64.14 92.5098 63.2C92.5098 62.14 92.7798 61.24 93.3198 60.5C93.8598 59.76 94.6798 59.2 95.7798 58.82C96.8998 58.44 98.3098 58.25 100.01 58.25H103.43V61.52H101.09C100.37 61.52 99.8398 61.64 99.4998 61.88C99.1798 62.1 99.0198 62.44 99.0198 62.9C99.0198 63.28 99.1598 63.6 99.4398 63.86C99.7398 64.1 100.14 64.22 100.64 64.22C101.1 64.22 101.52 64.1 101.9 63.86C102.3 63.6 102.59 63.2 102.77 62.66L103.64 64.67C103.38 65.89 102.83 66.8 101.99 67.4C101.15 68 100.02 68.3 98.5998 68.3ZM111.053 68L111.323 62.51C111.443 62.53 111.563 62.55 111.683 62.57C111.803 62.57 111.913 62.57 112.013 62.57C112.453 62.57 112.803 62.49 113.063 62.33C113.323 62.15 113.523 61.9 113.663 61.58C113.823 61.24 113.933 60.84 113.993 60.38C114.053 59.9 114.093 59.35 114.113 58.73L114.353 51.59H130.013V68H123.233V55.46L124.703 56.87H118.823L120.203 55.37L120.053 59C119.993 60.48 119.863 61.81 119.663 62.99C119.463 64.15 119.143 65.14 118.703 65.96C118.283 66.76 117.703 67.38 116.963 67.82C116.243 68.24 115.323 68.45 114.203 68.45C113.763 68.45 113.273 68.41 112.733 68.33C112.213 68.25 111.653 68.14 111.053 68Z" fill="white"/>
<path d="M30.86 34V13H46.85V18.49H36.29L37.82 16.96V34H30.86ZM53.8834 34.3C51.8834 34.3 50.1334 33.93 48.6334 33.19C47.1534 32.45 46.0034 31.44 45.1834 30.16C44.3634 28.86 43.9534 27.4 43.9534 25.78C43.9534 24.12 44.3534 22.65 45.1534 21.37C45.9734 20.09 47.0834 19.09 48.4834 18.37C49.9034 17.65 51.4934 17.29 53.2534 17.29C54.8734 17.29 56.3634 17.61 57.7234 18.25C59.1034 18.89 60.2034 19.84 61.0234 21.1C61.8634 22.36 62.2834 23.92 62.2834 25.78C62.2834 26.02 62.2734 26.29 62.2534 26.59C62.2334 26.87 62.2134 27.13 62.1934 27.37H49.5634V24.1H58.5934L56.0434 24.97C56.0434 24.33 55.9234 23.79 55.6834 23.35C55.4634 22.89 55.1534 22.54 54.7534 22.3C54.3534 22.04 53.8734 21.91 53.3134 21.91C52.7534 21.91 52.2634 22.04 51.8434 22.3C51.4434 22.54 51.1334 22.89 50.9134 23.35C50.6934 23.79 50.5834 24.33 50.5834 24.97V25.99C50.5834 26.69 50.7234 27.29 51.0034 27.79C51.2834 28.29 51.6834 28.67 52.2034 28.93C52.7234 29.17 53.3534 29.29 54.0934 29.29C54.8534 29.29 55.4734 29.19 55.9534 28.99C56.4534 28.79 56.9734 28.49 57.5134 28.09L61.0534 31.66C60.2534 32.52 59.2634 33.18 58.0834 33.64C56.9234 34.08 55.5234 34.3 53.8834 34.3ZM64.7209 34V17.59H71.4709V25L77.1409 17.59H83.3809V34H76.6309V26.56L70.9909 34H64.7209ZM73.6009 16.24C71.5009 16.24 69.9709 15.82 69.0109 14.98C68.0709 14.12 67.6009 12.79 67.6009 10.99H71.9509C71.9509 11.61 72.0609 12.1 72.2809 12.46C72.5009 12.8 72.9309 12.97 73.5709 12.97C74.1909 12.97 74.6209 12.8 74.8609 12.46C75.1209 12.1 75.2509 11.61 75.2509 10.99H79.6609C79.6609 12.79 79.1709 14.12 78.1909 14.98C77.2309 15.82 75.7009 16.24 73.6009 16.24ZM86.547 34V17.59H93.717L98.937 27.82H96.117L102.027 17.59H108.387L108.447 34H102.357L102.327 24.13L103.377 24.85L98.847 32.71H95.997L91.467 24.34L92.637 24.04V34H86.547Z" fill="white"/>
</svg>
